<svg width="51" height="37" viewBox="0 0 51 37" fill="none" xmlns="http://www.w3.org/2000/svg">
<path d="M3.00151 37H48.0028C48.4584 36.9986 48.905 36.8744 49.2945 36.6408C49.684 36.4071 50.0017 36.0729 50.2133 35.6741C50.425 35.2753 50.5226 34.827 50.4956 34.3775C50.4687 33.9279 50.3182 33.4942 50.0603 33.1229L27.5597 0.998931C26.6272 -0.332977 24.3821 -0.332977 23.4471 0.998931L0.946447 33.1229C0.686002 33.4934 0.533271 33.9274 0.504847 34.3777C0.476424 34.828 0.573396 35.2774 0.785227 35.677C0.997058 36.0766 1.31565 36.4113 1.70638 36.6445C2.09711 36.8778 2.54504 37.0007 3.00151 37Z" fill="#8F01FE"/>
</svg>
