<svg width="21" height="28" viewBox="0 0 21 28" fill="none" xmlns="http://www.w3.org/2000/svg">
<path d="M0.0348964 2.13821L0.0650782 26.4632C0.0661469 26.7095 0.133585 26.9508 0.26013 27.1612C0.386674 27.3716 0.567535 27.5431 0.783245 27.6572C0.998954 27.7713 1.24134 27.8238 1.48432 27.8089C1.7273 27.794 1.96167 27.7124 2.1622 27.5728L19.5114 15.3888C20.2307 14.8838 20.2292 13.6702 19.5086 13.1657L2.12926 1.02477C1.9288 0.884235 1.69411 0.801969 1.45069 0.786907C1.20727 0.771846 0.964427 0.824564 0.748545 0.939335C0.532663 1.05411 0.351996 1.22654 0.22618 1.4379C0.100363 1.64927 0.0342061 1.89147 0.0348964 2.13821Z" fill="#8A1FDE"/>
</svg>
