<svg width="220" height="38" viewBox="0 0 220 38" fill="none" xmlns="http://www.w3.org/2000/svg">
<rect width="220" height="38" fill="black"/>
<path d="M126.498 1L81.4972 1C81.0416 1.00141 80.595 1.12562 80.2055 1.35924C79.816 1.59287 79.4983 1.92706 79.2867 2.32586C79.075 2.72466 78.9774 3.17297 79.0044 3.62251C79.0313 4.07205 79.1818 4.50582 79.4397 4.87712L101.94 37.0011C102.873 38.333 105.118 38.333 106.053 37.0011L128.554 4.87712C128.814 4.5066 128.967 4.07261 128.995 3.62232C129.024 3.17203 128.927 2.72264 128.715 2.323C128.503 1.92335 128.184 1.58872 127.794 1.35548C127.403 1.12224 126.955 0.999289 126.498 1Z" fill="#8F01FE"/>
</svg>
