<svg width="21" height="28" viewBox="0 0 21 28" fill="none" xmlns="http://www.w3.org/2000/svg">
<path d="M20.0315 26.436L20.0013 2.11101C20.0003 1.86474 19.9328 1.62341 19.8063 1.41302C19.6797 1.20263 19.4989 1.03114 19.2832 0.917011C19.0675 0.802877 18.8251 0.750425 18.5821 0.765298C18.3391 0.780172 18.1047 0.861807 17.9042 1.00142L0.555017 13.1855C-0.164308 13.6904 -0.162802 14.904 0.557775 15.4085L17.9372 27.5495C18.1376 27.69 18.3723 27.7722 18.6157 27.7873C18.8591 27.8024 19.102 27.7497 19.3179 27.6349C19.5337 27.5201 19.7144 27.3477 19.8402 27.1363C19.966 26.925 20.0322 26.6827 20.0315 26.436Z" fill="#8A1FDE"/>
</svg>
