<svg width="28" height="30" viewBox="0 0 28 30" fill="none" xmlns="http://www.w3.org/2000/svg">
<path fill-rule="evenodd" clip-rule="evenodd" d="M8.33464 0.814144C9.77464 0.74437 10.2336 0.728516 13.9004 0.728516C17.5679 0.728516 18.0261 0.745161 19.4653 0.814144C20.9031 0.883127 21.8849 1.12495 22.7436 1.47777C23.6443 1.83625 24.4602 2.39794 25.1346 3.12374C25.8213 3.83657 26.3527 4.69916 26.6916 5.65137C27.0253 6.55919 27.2534 7.59704 27.3194 9.11615C27.3854 10.6384 27.4004 11.1237 27.4004 14.9999C27.4004 18.8762 27.3847 19.3614 27.3194 20.8838C27.2541 22.4028 27.0253 23.4407 26.6916 24.3485C26.3467 25.2865 25.8846 26.0833 25.1346 26.8761C24.4603 27.602 23.6443 28.1638 22.7436 28.5221C21.8849 28.8749 20.9031 29.1159 19.4662 29.1857C18.0261 29.2555 17.5671 29.2714 13.9004 29.2714C10.2336 29.2714 9.77464 29.2548 8.33464 29.1857C6.89765 29.1167 5.91589 28.8749 5.05714 28.5221C4.16989 28.1574 3.41614 27.6689 2.66614 26.8761C1.97945 26.1633 1.44809 25.3007 1.10914 24.3485C0.775396 23.4407 0.547393 22.4028 0.481391 20.8838C0.415388 19.3614 0.400391 18.877 0.400391 14.9999C0.400391 11.1229 0.416137 10.6384 0.481391 9.11695C0.546645 7.59704 0.775396 6.55919 1.10914 5.65137C1.44825 4.69923 1.97957 3.83668 2.66614 3.12374C3.34043 2.39781 4.1564 1.83608 5.05714 1.47777C5.91589 1.12495 6.89765 0.883918 8.33464 0.814144ZM19.3559 3.383C17.9324 3.31481 17.5049 3.29975 13.9004 3.29975C10.2959 3.29975 9.86839 3.31481 8.44489 3.383C7.12864 3.44643 6.41389 3.67873 5.93839 3.87457C5.30839 4.13304 4.85839 4.44225 4.38589 4.94175C3.91415 5.44125 3.62089 5.91697 3.37639 6.58297C3.19114 7.08565 2.97139 7.84124 2.91139 9.2327C2.84689 10.7375 2.83264 11.1895 2.83264 14.9999C2.83264 18.8104 2.84689 19.2623 2.91139 20.7672C2.97139 22.1586 3.19114 22.9142 3.37639 23.417C3.59266 24.0369 3.93762 24.5976 4.38589 25.0582C4.82144 25.532 5.35196 25.8967 5.93839 26.1253C6.41389 26.3212 7.12864 26.5534 8.44489 26.6169C9.86839 26.6851 10.2951 26.7002 13.9004 26.7002C17.5056 26.7002 17.9324 26.6851 19.3559 26.6169C20.6721 26.5534 21.3869 26.3212 21.8624 26.1253C22.4924 25.8669 22.9424 25.5577 23.4149 25.0582C23.8631 24.5977 24.2081 24.0369 24.4244 23.417C24.6097 22.9142 24.8294 22.1586 24.8894 20.7672C24.9539 19.2623 24.9682 18.8104 24.9682 14.9999C24.9682 11.1895 24.9539 10.7375 24.8894 9.2327C24.8294 7.84124 24.6097 7.08565 24.4244 6.58297C24.1799 5.91697 23.8874 5.44125 23.4149 4.94175C22.9424 4.44306 22.4924 4.13304 21.8624 3.87457C21.3869 3.67873 20.6721 3.44643 19.3559 3.383ZM12.1767 19.3993C12.7232 19.6387 13.3088 19.7618 13.9004 19.7618C15.0951 19.7618 16.2408 19.2601 17.0855 18.3671C17.9304 17.4741 18.405 16.2628 18.405 14.9999C18.405 13.7371 17.9304 12.5258 17.0855 11.6328C16.2408 10.7397 15.0951 10.238 13.9004 10.238C13.3088 10.238 12.7232 10.3612 12.1767 10.6005C11.6301 10.8398 11.1335 11.1906 10.7153 11.6328C10.297 12.0749 9.96518 12.5999 9.73881 13.1776C9.51244 13.7553 9.39593 14.3746 9.39593 14.9999C9.39593 15.6253 9.51244 16.2445 9.73881 16.8223C9.96518 17.4 10.297 17.9249 10.7153 18.3671C11.1335 18.8092 11.6301 19.1601 12.1767 19.3993ZM8.99382 9.81294C10.2951 8.43727 12.0601 7.66442 13.9004 7.66442C15.7408 7.66442 17.5058 8.43727 18.807 9.81294C20.1083 11.1886 20.8394 13.0545 20.8394 14.9999C20.8394 16.9454 20.1083 18.8112 18.807 20.187C17.5058 21.5626 15.7408 22.3355 13.9004 22.3355C12.0601 22.3355 10.2951 21.5626 8.99382 20.187C7.6925 18.8112 6.96143 16.9454 6.96143 14.9999C6.96143 13.0545 7.6925 11.1886 8.99382 9.81294ZM22.378 8.75733C22.6856 8.43214 22.8584 7.9911 22.8584 7.53123C22.8584 7.07133 22.6856 6.6303 22.378 6.30511C22.0703 5.97993 21.6532 5.79725 21.2181 5.79725C20.7832 5.79725 20.3659 5.97993 20.0584 6.30511C19.7507 6.6303 19.5779 7.07133 19.5779 7.53123C19.5779 7.9911 19.7507 8.43214 20.0584 8.75733C20.3659 9.08252 20.7832 9.2652 21.2181 9.2652C21.6532 9.2652 22.0703 9.08252 22.378 8.75733Z" fill="white"/>
</svg>
