<svg width="51" height="37" viewBox="0 0 51 37" fill="none" xmlns="http://www.w3.org/2000/svg">
<path d="M47.9985 0L2.99722 0C2.5416 0.00141144 2.095 0.125618 1.70549 0.359241C1.31598 0.592865 0.998306 0.927063 0.786667 1.32586C0.575024 1.72466 0.477432 2.17296 0.504391 2.62251C0.531349 3.07205 0.681835 3.50582 0.939659 3.87712L23.4403 36.0011C24.3728 37.333 26.6179 37.333 27.5529 36.0011L50.0536 3.87712C50.314 3.5066 50.4667 3.07261 50.4952 2.62232C50.5236 2.17202 50.4266 1.72264 50.2148 1.323C50.0029 0.923351 49.6844 0.588726 49.2936 0.35548C48.9029 0.122234 48.455 -0.000709534 47.9985 0Z" fill="#8F01FE"/>
</svg>
